<?xml version="1.0" standalone="no"?>
<!DOCTYPE svg PUBLIC "-//W3C//DTD SVG 20010904//EN"
 "http://www.w3.org/TR/2001/REC-SVG-20010904/DTD/svg10.dtd">
<svg version="1.0" xmlns="http://www.w3.org/2000/svg"
 width="24.000000pt" height="24.000000pt" viewBox="0 0 24.000000 24.000000"
 preserveAspectRatio="xMidYMid meet">

<g transform="translate(0.000000,24.000000) scale(0.100000,-0.100000)"
fill="#000000" stroke="none">
<path d="M14 197 c-3 -8 -4 -39 -2 -68 l3 -54 80 0 80 0 0 65 0 65 -78 3 c-59
2 -79 0 -83 -11z m146 -38 c0 -23 -4 -30 -14 -26 -8 3 -22 -1 -33 -8 -23 -18
-34 -19 -27 -1 9 23 -16 29 -37 10 -18 -17 -19 -16 -19 19 l0 37 65 0 65 0 0
-31z"/>
<path d="M100 170 c0 -5 5 -10 10 -10 6 0 10 5 10 10 0 6 -4 10 -10 10 -5 0
-10 -4 -10 -10z"/>
<path d="M200 110 l0 -60 -75 0 c-45 0 -75 -4 -75 -10 0 -7 30 -10 83 -8 l82
3 3 68 c2 42 -1 67 -8 67 -6 0 -10 -25 -10 -60z"/>
</g>
</svg>
